<?xml version="1.0" encoding="UTF-8"?>
<svg id="Layer_1" xmlns="http://www.w3.org/2000/svg" version="1.1" viewBox="0 0 124.32 144">
  <!-- Generator: Adobe Illustrator 29.6.1, SVG Export Plug-In . SVG Version: 2.1.1 Build 9)  -->
  <defs>
    <style>
      .st0 {
        fill: #030302;
      }

      .st1 {
        fill: #f8f9fa;
      }

      .st2 {
        fill: #bd8c51;
      }

      .st3 {
        fill: #468e5d;
      }
    </style>
  </defs>
  <path class="st1" d="M0,36.24V0h124.32v144H0v-36l60.95,35.17c.72.47,1.46.47,2.18,0,20.22-11.82,40.71-23.19,60.83-35.17l.13-70.94-.24-.96L62.82.66l-.78-.2L0,36.24Z"/>
  <path class="st0" d="M0,108V36.24L62.04.47l.78.2,61.04,35.44.24.96-.13,70.94c-20.12,11.98-40.61,23.35-60.83,35.17-.72.47-1.46.47-2.18,0L0,108ZM60.24,4.08c-7.79,4.2-15.38,8.77-23.04,13.2-3.54,2.05-7.03,4.19-10.56,6.24-2.79,1.62-5.61,3.18-8.4,4.8-2.63,1.53-5.29,3.02-7.92,4.56-2.33,1.36-4.69,2.62-6.96,4.08-.24.16-.77.23-1.04.46l-.17.38c.04,12.44,0,24.89.02,37.33,0,4.08,0,8.16,0,12.24.01,6.46-.05,12.93.05,19.39,13.7,7.78,27.32,15.74,40.99,23.57,4.47,2.56,8.95,5.15,13.44,7.68,1.79,1.01,3.52,2.17,5.4,3.03.4,0,6.52-3.58,6.84-3.99,4.63-2.29,8.97-5.11,13.44-7.68,4.16-2.39,8.47-4.56,12.48-7.2,2.92-1.27,5.63-3.23,8.4-4.8,3.22-1.82,6.41-3.66,9.6-5.52,2.78-1.62,5.72-3.01,8.4-4.8l.36-.24c.24-2.36.1-4.81.12-7.2,0-.08,0-.16,0-.24.14-20.58-.06-41.17-.05-61.75l-.59-.61c-8.63-5.03-17.36-9.9-26-14.92-5.11-2.97-10.24-5.93-15.36-8.88-3.13-1.81-6.22-3.72-9.36-5.52-2.72-1.55-5.4-3.18-8.14-4.69-.82.05-1.39.61-1.94,1.09Z"/>
  <path class="st3" d="M58.56,79.68c-5.33,4.23-8.4,11.54-6.65,18.29,2.46,9.48,14.23,13.93,21.29,19.39-.2.04-.69-.12-.48.36.24.55,2.33,2.3,2.84,2.92l-.44,4.64c.28.32,3.32-1.81,3.77-1.88.33-.05,1.15.29,1.51.45.4.98,1,1.87,1.31,2.89.27.91.28,1.8.61,2.63-4.47,2.57-8.81,5.39-13.44,7.68.51-.66.89-2.38.97-3.23.65-7.44-4.89-11.04-10.09-15.01l1.68-2.4-5.84-.94c-.62-.64-2.21-5.19-2.68-5.3-.53-.13-1.34,2.01-1.6,2.49-.12.22-.41.33-.44.39-5.07-3.36-10.16-8.14-11.28-14.4.51.24,3.91,1.85,4.08,1.68l-1.16-7.27c1.47-1.57,2.97-3.14,4.52-4.63.42-.4,1.3-.37.32-1.02-1.62-.44-5.48-.3-6.8-1,1.62-4.75,6.17-7.58,10.08-10.32,1.73,1.58,2.74,2.99,5.41,2.65.66-.08,1.36-.8,1.66-.73.36.09.64,1.4.85,1.68Z"/>
  <path class="st3" d="M40.32,74.64c-4.82,3.52-10.85,6.61-12.72,12.72-1.65.35-2.04-.02-.48,1.44-.88,4.19-.66,9.05.65,13.15,2.89,9.03,12.88,14.48,20.23,19.49.12,1.69-.85,3.76-.72,5.52.2.21,3.58-1.73,4.16-1.97.34-.14.65-.11.88-.19,4.04,3.21,6.45,8.11,4.32,13.2-4.49-2.53-8.97-5.12-13.44-7.68-1.97-3.34-5.45-5.64-8.56-7.88-3.33-2.39-6.88-4.52-10.16-7,.49-.24,1.15-.96,1.76-.91.42.04,2.7,1.51,2.8,1.39.25-.88-.55-2.52-.42-3.21.1-.53,2.07-1.85,2.34-2.54-.88-.23-2.66-.1-3.35-.62-.57-.43-.76-1.81-1.15-2.44-.15-.25.01-.42-.54-.31-.68,2.68-1.88,3.29-4.56,3.36.14.55,2.13,2.17,2.17,2.33.15.59-.19,1.21-.25,1.75-2.98-2.65-5.89-5.62-7.44-9.36,4.1-6.01,5.9-18.93,6.48-26.16,1.55-.58,5.87-4.52,7.2-4.56.32,0,.83.25,1.31.25,1.87,0,2.89.22,4.22-1.32l1.43-2.28c.5,1.34,2.5,3.4,3.84,3.84Z"/>
  <path class="st3" d="M60.24,4.08c-2.65,2.33-5.71,5.77-7.68,8.64-.01.02-.34-.06-.49.16-.38.58-1.62,3.63-1.91,3.8-.37.22-3,.48-3.72.6-.34.06-.71-.23-.6.35l2.84,2.92-.44,4.64c.28.32,3.32-1.82,3.77-1.89.56-.09.71.34,1.02.45.68,1.33,2.08,2.41,3.25,3.35,6.94,5.61,15.83,8.18,23.39,12.73.17.1.36.17.48.24,2.49,1.54,6.42,4.65,7.72,7.28,1.43,2.89,1.16,5.98-.28,8.8-.01-.02-.37.05-.48-.17-.2-.39-1.05-3.18-1.67-2.71-.23.17-1.58,4.03-2.17,4.43-.72.49-4.55.63-4.79.85l1.8,2.4,1.45,1.2c.29.45-.12.73-.13.96l-3.6,2.88c-1.49-.62-3.01-.2-4.15-.53-.34-.1-.59-.56-.96-.72-1.09-.47-2.3-.7-3.29-1.39.23-.14,2.64-2.7,3-3.12,7.27-8.46,2.45-14.9-5.88-19.44.28-.31,2.14-2.18,1.92-2.4-.95-.29-4.39-.35-4.98-.78-.43-.31-1.77-4.35-1.98-4.5-.29-.22-.54.21-.68.4-.59.78-1.06,2.21-1.72,3.2-6.12-3.01-20.42-9.62-21.78-16.98-.15-.83.14-1.7-.3-2.46,7.66-4.43,15.25-9,23.04-13.2Z"/>
  <path class="st1" d="M58.56,79.68s.3-.03.39.08c1.8,2.24,3.01,2.17,5.84,1.6-.03.58-.06,1.01.34,1.46.1.12,2.1,1.12,2.3,1.18-1.62,2.86-3.32,5.95-3.12,9.36-1.07.58-4.19.65-5.52.96-.84.82,3.6,3.94,3.81,4.73s-1.19,5.81-.92,6.06c1.59.33,4.5-2.52,5.68-2.59.33-.02,1.72.91,2.24,1.15,6.05,6.09,15.87,9.04,21.48,15.6.52.6,1.99,3.06,2.27,3.25.73.49.66-.21.9-.38.35-.25.52.02.55.01-4.01,2.64-8.32,4.81-12.48,7.2-.34-.83-.34-1.72-.61-2.63-.31-1.02-.91-1.91-1.31-2.89.4.17,2.64,1.69,2.88,1.44.06-1.12-1-3.71-.68-4.64.06-.18,2.29-2.01,2.73-2.56.16-.21.57-.37.12-.6-.79-.42-3.71-.27-4.28-.64-.34-.22-1.63-4.04-1.85-4.04-.86,0-1.66,3.35-2.38,3.86-.47.33-2.96.56-3.74.7-7.05-5.47-18.83-9.91-21.29-19.39-1.75-6.75,1.31-14.06,6.65-18.29Z"/>
  <path class="st3" d="M73.68,77.76c.25.36,2.31,2.02,2.74,2.18.92.34,1.84.21,2.78.22-.05,1.63-.02,3.19.24,4.8-.4.16-.51.53-.69.87-6.24,12.23,5.66,18.22,14.61,23.13-.12,1.29-.29,2.56-.48,3.84.34.33,2.43-1.02,2.96-1.25.33-.15.71-.11.88-.19,2.29,1.77,4.95,3.51,6.48,6-2.77,1.57-5.48,3.53-8.4,4.8-.03.01-.2-.26-.55-.01-.24.17-.17.87-.9.38-.28-.19-1.75-2.64-2.27-3.25-5.61-6.56-15.43-9.5-21.48-15.6.55.26,3.36,1.65,3.6,1.44-.22-1.55-1.35-4.9-.91-6.31.11-.37,3.28-2.82,3.81-3.63.19-.3.3-.48.23-.85-.22-.21-5.17-.33-6-.85-.26-.16-1.98-3.83-2.27-4.46-.32-.7.24-1.17-1.07-.91-.36,1.04-1.89,4.83-2.67,5.25-.2-3.41,1.5-6.5,3.12-9.36.91.26,3.35.55,3.98-.22.41-.5.87-4.26,1.06-5.3l1.2-.72Z"/>
  <path class="st3" d="M26.64,23.52c2.12,3.15,5.35,5.61,8.52,7.68,7.04,4.63,15.01,7.7,21.96,12.48-.12,1.21-.23,2.4-.48,3.6l3.12-1.2c4.07,3.55,5.23,9.04,1.68,13.44-1.01-.22-2.21.04-3.12.48,1.01-2.8-5.08-4.69-6.72-3.95-1.16.52-1.32,3.94-1.45,5.16-.54-.25-.7-.96-.96-1.44,5.77-8.89-6.38-16.1-12.96-19.68.15-1.52,1.17-5.86-.48-6.6-.46-.21-4.57-.23-5.11-.07-1.07.31-1.13,1.87-1.25,1.87-1.6-1.36-2.29-1.75-4.44-1.68-2.22-1.76-4.84-3.12-6.72-5.28,2.79-1.62,5.61-3.18,8.4-4.8Z"/>
  <path class="st1" d="M70.32,7.68c-4.16,4.7-8.55,9.43-3.7,15.58,3.23,4.1,7.24,5.56,11.38,8.18.55.35,2.47,1.78,2.6,2.33.24,1.01-1.19,4.71-.92,6.07-7.57-4.55-16.46-7.12-23.39-12.73-1.17-.94-2.56-2.02-3.25-3.35.17.06.47,0,.72.11.42.18,2.39,1.58,2.64,1.33-.05-1.06-.99-3.76-.68-4.64.11-.33,2.75-2.26,3.08-2.92.01-.52-4.06-.59-4.51-.89-.24-.16-1.55-3.45-1.73-4.03,1.97-2.87,5.03-6.31,7.68-8.64.55-.48,1.12-1.04,1.94-1.09,2.75,1.5,5.43,3.13,8.14,4.69Z"/>
  <path class="st1" d="M16.08,74.64c-.14,4.1-.14,8.14-.48,12.24-1.9,3.15-1.71,7-1.68,10.56-.15.51-.13,1.65-.72,1.92-.49-2.7-.99-4.65-.32-7.4.31-1.3,2.25-5.14.15-5.75-1.6-.46-2.47.11-3.42,1.27-1.77,2.17-2.7,6.59-2.88,9.36-.16,2.47.1,10.4,3.25,10.9,2.9.46,3.88-.68,5.48-2.78.09-.11.37-.06.39-.08,1.55,3.74,4.46,6.71,7.44,9.36-.06.57-.04,1.1-.24,1.68.06.06,1.24-.38,1.44-.48,3.27,2.49,6.82,4.61,10.16,7,3.11,2.23,6.6,4.53,8.56,7.88-13.67-7.83-27.29-15.79-40.99-23.57-.1-6.46-.04-12.93-.05-19.39,3.34-5.33,8.44-9.68,13.92-12.72Z"/>
  <path class="st1" d="M3.36,36.96l3.36,2.64c-.13.22-.1.62-.36.95-.68.86-2.45.76-3.48.97.14.55,2.13,2.17,2.17,2.33.21.83-.51,2.5-.49,3.43.25.26,2.6-1.44,3.2-1.39.42.04,2.7,1.51,2.8,1.39.19-.85-.6-2.51-.44-3.19.1-.45.7-.63.92-.89l6.24,5.28c-.2,1.83-.02,5.03-.54,6.54-.32.92-1.68,1.13-1.87,2.69s.18,2.37,1.7,2.91c-.05,1.8-.22,3.57-.25,5.37l-4.08,2.64c0-.13-.44-.3-.13-.95.22-.45,2.88-2.49,2.52-2.89-.89-.35-3.17-.2-3.84-.6-.36-.21-1.31-2.67-1.57-3.24-.09-.19-.05-.68-.46-.48-.59.29-1.48,3.32-1.96,3.62-.37.23-2.58.46-3.35.67-.23.06-.77-.1-.56.39.27.64,2.39,2,2.59,2.7.31,1.05-.66,2.97-.43,4.15.26.28,2.81-1.43,3.37-1.58s.57.12.71.14l-6.96,4.56c-.01-12.44.02-24.89-.02-37.33l.17-.38c.28-.22.8-.3,1.04-.46Z"/>
  <path class="st1" d="M95.04,22.08c.18.77,1,1.41,1.57,1.91,5.2,4.67,12.05,7.46,18.11,10.81-.04.64-1.05,2.96-1.45,3.23-.64.43-2.74.47-3.59.61-.03.27,0,.48.12.72.29.55,1.99,1.83,2.17,2.16.29.53-.08.97-.13,1.44-5.24-5.32-12.47-7.72-18.72-11.52.05-.05.05-.41.23-.6.24-.25,1.99-1.79,1.69-2.04-1.27-.3-5.54-.35-6.38-.94s-2.41-5.53-2.77-5.75c-.1-.06-.6-.06-.68-.01-.13.08-.93,2.32-1.17,2.8-.16.33-.49.48-.53.54-4.08-2.49-6.84-7.85-3.84-12.24,5.12,2.95,10.25,5.91,15.36,8.88Z"/>
  <path class="st1" d="M59.28,36.72c-.07.11-.03.42-.22.61-.61.67-3.78.74-4.82,1.07-.1.36.09.4.24.6.86,1.24,2.99,2.54,2.9,4.09-.02.31-.25.54-.26.59-6.95-4.77-14.93-7.85-21.96-12.48-3.16-2.08-6.39-4.53-8.52-7.68,3.53-2.05,7.02-4.19,10.56-6.24.43.77.14,1.64.3,2.46,1.37,7.35,15.66,13.97,21.78,16.98Z"/>
  <path class="st3" d="M79.68,13.2c-3,4.39-.24,9.75,3.84,12.24-.32.61-.33,2.04-1.26,2.46-.75.34-5.7.66-5.95.9l.12.72,1.56,1.92c-4.14-2.62-8.15-4.08-11.38-8.18-4.85-6.15-.46-10.88,3.7-15.58,3.14,1.8,6.23,3.71,9.36,5.52Z"/>
  <path class="st1" d="M59.76,118.8c5.19,3.97,10.74,7.57,10.09,15.01-.07.86-.46,2.57-.97,3.23-.32.41-6.44,3.99-6.84,3.99-1.88-.87-3.61-2.02-5.4-3.03,2.13-5.09-.28-9.99-4.32-13.2.05-.02.14-.49.55-.45.91.11,5.23,2.82,5.45,2.6.05-1.53-1.17-4.53-.96-5.87.09-.57,1.76-2.16,2.4-2.29Z"/>
  <path class="st3" d="M105.36,93.84c.2,1.94,6.24,6.56,8.16,7.44.05.08.34.17.45.38.61,1.21-.15,2.21-.21,3.46,2.39-.87,2.66-1.94,5.04-.24.71.5,1.73,1.54,2.4,2.16-2.68,1.79-5.62,3.18-8.4,4.8-2.5-2.44-5.42-4.42-8.4-6.24.04-.04.05-.41.23-.6.31-.32,1.88-1.62,1.45-2.04-1.08-.07-4.65-.16-5.42-.7s-2-4.61-2.29-4.79c-.74-.48-1.27,1.44-1.61,2.07-.16.3-.49.47-.53.54-2.22-1.5-4.37-3.82-5.04-6.48,2.22.88,5.5.75,7.44-.72-.09,2.73,5.29,2.22,6.72.96Z"/>
  <path class="st3" d="M121.68,99.36h-.24v-29.52c-.23-.27-5.26,3.73-5.76,3.84-.92.19-2.06-.38-2.88.48-.01-1.2-1.68-3.6-2.78-3.83-.33-.07-.72.01-1.06,0,4.16-3.3,9.18-6.01,12.43-10.25v-21.03c-1.57-1.53-3.59-2.44-5.47-3.52-.46-.27-.7-.44-1.2-.72-6.06-3.35-12.91-6.13-18.11-10.81-.56-.51-1.38-1.15-1.57-1.91,8.64,5.01,17.37,9.89,26,14.92l.59.61c-.02,20.58.18,41.17.05,61.75Z"/>
  <path class="st3" d="M16.32,66c-.05,2.9-.14,5.75-.24,8.64-5.48,3.04-10.58,7.39-13.92,12.72,0-4.08,0-8.16,0-12.24l6.96-4.56c1.34.25,2.14.94,3.36,1.44-.09-1.12-.18-2.23-.24-3.36l4.08-2.64Z"/>
  <path class="st3" d="M18.96,39.12c-.93,2.52-1.38,6.64-1.68,9.36l-6.24-5.28c.48-.56.99-1.09,1.44-1.68-1.39-.26-2.95.16-3.74-1.19-.37-.63-.72-2.87-1.36-1.87-.2.32-.46.78-.66,1.13l-3.36-2.64c2.27-1.46,4.63-2.72,6.96-4.08l8.64,6.24Z"/>
  <path class="st1" d="M104.4,105.6c2.98,1.82,5.9,3.8,8.4,6.24-3.19,1.86-6.38,3.7-9.6,5.52-1.53-2.49-4.19-4.23-6.48-6,.07-.03.28-.49.7-.62,1.82-.56,4.04,1.84,5.78,2.06.2-.18-1.08-4.46-.97-5.38.12-.97,1.7-1.37,2.17-1.81Z"/>
  <path class="st1" d="M24.96,33.6c-1.22.04-2.18.21-3.13,1.07-.75.67-2.52,3.51-2.87,4.45l-8.64-6.24c2.63-1.54,5.29-3.03,7.92-4.56,1.88,2.16,4.5,3.52,6.72,5.28Z"/>
  <path class="st2" d="M113.52,101.28c-.45-.71-.87-1.3-1.44-1.92,2.68-.07,3.89-.68,4.56-3.36.54-.1.38.03.53.31,1.33,2.42.63,2.98,4.26,3.05h.24c0,.08,0,.16,0,.24-.67.61-2.39,1.86-2.39,2.72,0,.75.62,1.84.47,2.67-.05.26-.7-.26-.96-.12-2.38-1.7-2.64-.63-5.04.24.06-1.25.82-2.25.21-3.46-.11-.21-.39-.3-.45-.38Z"/>
  <path class="st1" d="M121.2,107.04c-.67-.62-1.69-1.66-2.4-2.16.26-.14.91.38.96.12.15-.83-.47-1.92-.47-2.67,0-.86,1.72-2.11,2.39-2.72-.02,2.39.12,4.84-.12,7.2l-.36.24Z"/>
  <path class="st2" d="M36.24,40.08c-.39,3.84-.81,7.68-1.2,11.52-.34,3.35-1,6.69-.96,10.08.35.02.36-.87.41-1.15.21-1.33.24-2.57.67-3.89.28-.86,1.07-1.91,1.08-2.64,1.25-.39,1.42-1.61,2.82-1.86,6.27-1.14,7.73,3.11,10.14,7.62.26.48.42,1.19.96,1.44.13-1.22.28-4.63,1.45-5.16,1.64-.74,7.73,1.16,6.72,3.95.91-.44,2.11-.7,3.12-.48.22.05,2.9,1.29,3.2,1.48,1.43.9.89,3.91.64,5.48,0,.03-.23.25-.28.55-.34,2.1-.94,4.21-1.13,6.33-.02.27-.22.86.21.81.49-1.78.98-3.57,1.5-5.34.33-1.1.61-1.69.9-3.06.71-3.31,1.58-1.46,3.12-2.4.99.69,2.2.92,3.29,1.39.37.16.62.62.96.72,1.14.33,2.66-.09,4.15.53,3.07,1.28.35,5.16.96,7.68,1.93-.42.42-3.47,2.16-4.19,1.29-.54,2.83.32,3.83.11.3.61,1.01.46,1.53.75,1.71.97.57,4.75.39,6.45s-.6,3.54-.36,5.28c.83-1.23.85-2.91,1.19-4.33.14-.56.44-.97.61-1.67.19-.76-.02-1.65.43-2.57,1.05-2.17,3.69-2.31,5.81-1.99,1.64.25,3.49,2.19,4.13,3.67.31.73.33,2.34,1.14,1.84.42-.26.87-8.57.97-9.83.33-3.95.66-7.91.97-11.87.33-1.62,6.75-5.06,6.73-.49,0,1.81-.36,4.22-.5,6.12-.24,3.11-.72,6.23-.72,9.36.56.02,1.13-.03,1.68,0,.34.02.73-.07,1.06,0,1.1.24,2.77,2.64,2.78,3.83.82-.86,1.96-.29,2.88-.48,1.15,1.57.63,3.28.45,5.13-.23,2.34-.59,5.05-1.04,7.36-.49,2.54-1.46,7.7-4.59,8.13-2.68.37-3.43-1.5-4.35-3.53-.16-.34.14-.65-.54-.52.28,1.11-.34,2.64-.24,3.6-1.43,1.26-6.81,1.77-6.72-.96-1.94,1.47-5.22,1.6-7.44.72-1.17-.46-2.78-2.74-3.27-2.84s-1.26,1.23-3.27.86c-3.25-.59-4.74-3.68-5.22-6.66-.26-1.61-.29-3.17-.24-4.8-.94-.01-1.86.12-2.78-.22-.43-.16-2.5-1.82-2.74-2.18-.07-.1-.48-1.99-.96-1.44-.1.11-.18,1.81-.24,2.16-.19,1.04-.65,4.81-1.06,5.3-.63.77-3.07.48-3.98.22-.2-.06-2.2-1.06-2.3-1.18-.4-.45-.37-.88-.34-1.46-2.83.57-4.04.64-5.84-1.6-.09-.11-.37-.05-.39-.08-.21-.28-.5-1.59-.85-1.68-.3-.07-1,.64-1.66.73-2.67.34-3.68-1.07-5.41-2.65l-1.44-5.52c-.63.65-.86,1.51-1.44,2.27-.26.34-1.38,1.5-1.69,1.67-1.06.57-4.57.52-5.74.14-1.35-.43-3.34-2.49-3.84-3.84l-1.43,2.28c-1.33,1.55-2.35,1.33-4.22,1.32-.48,0-.99-.26-1.31-.25-1.87-1.77-2.26-3.74-2.4-6.24-.21-3.75.12-7.54.24-11.28-1.56,0-2.81.92-4.3,1.22-.06,4.14-.08,8.32-.26,12.46-.13,2.78-.26,5.63-.48,8.4-.58,7.23-2.38,20.15-6.48,26.16-.01.02-.3-.03-.39.08-1.6,2.1-2.58,3.24-5.48,2.78-3.15-.5-3.41-8.43-3.25-10.9.18-2.77,1.11-7.19,2.88-9.36.95-1.16,1.82-1.74,3.42-1.27,2.1.61.16,4.45-.15,5.75-.66,2.75-.16,4.7.32,7.4.58-.27.57-1.41.72-1.92,1.05-3.51,1.38-6.91,1.68-10.56.34-4.1.34-8.14.48-12.24.1-2.89.19-5.74.24-8.64.03-1.8.21-3.57.25-5.37-1.52-.54-1.9-1.3-1.7-2.91s1.55-1.77,1.87-2.69c.52-1.51.33-4.71.54-6.54.3-2.72.75-6.84,1.68-9.36.35-.94,2.12-3.78,2.87-4.45.96-.86,1.91-1.03,3.13-1.07,2.15-.06,2.84.33,4.44,1.68.12,0,.18-1.56,1.25-1.87.54-.16,4.64-.13,5.11.07,1.65.74.64,5.07.48,6.6ZM80.4,78.96v4.44c0,1.74,1.23,4.87,2.64,6,1.58,1.27,2.79,1.46,4.21-.11.47-.53.43-1.33,1.07-1.21,1.25,4.61,6.73,6.89,10.08,3l1.68-2.76c.27,2.5-1.96,5.17,1.82,5.29,3.47.1,2.41-2.35,2.75-4.92.45-3.42,1.11-6.82,1.8-10.2l1.08-2.88c-.03,3.79-1.28,7.6-.95,11.4.2,2.29,1.99,8.38,5.03,5.28,1.74-1.77,2.76-8.7,3.09-11.31.13-1.04.69-5.22.39-5.85-.36-.76-1.29-.62-1.4.28-.7,4.16-.85,8.97-2.15,12.97-.08.25-.06.72-.41.67-.29-4.15,2.49-14.15-.95-17.17-1.2-1.05-2.24-.64-3.23.39-.21.22-.96,1.8-1.34,1.42l1.69-18.85c-.04-2.31-3.59-.03-4.27.79l-1.98,22.93c-1.42,1.54-1.34,4.52-1.99,6.7-.08.26-1.03,3.25-1.37,2.83-.2-2.28-.82-4.48-2.16-6.36,3.18-.06,2.96-3.01,2.23-5.35-1.13-3.62-6.65-5.9-8.05-1.67-1.1,3.31-1.59,10.12-3.58,12.74-.8,1.05-1.04-.6-1.14-1.43-.44-3.93,1.01-8.75,1.17-12.7.09-2.19-1-2.44-3.06-2.7-2.78-.35-1.45,1.7-1.98,3.61-.07.25-.54.27-.69.55-.24.42-.79,2.63-1.7,2.01-.21-.14-.92-2.76-.97-3.23-.07-.74-.07-1.89,0-2.64.22-2.49,1.83-3.7-1.86-4.14-2.04-.25-2.04.14-3.18,1.62-.08-.75.27-1.88-.35-2.42-.36-.32-3.57-1.52-4.04-1.39-1.02.27-.6,2.94-.89,3.87-.09.27-.52.22-.67.57-.74,1.77-1,4.29-1.86,6.31-.17.4-1.43,3.32-2.03,2.89-1.24-4.7,1.22-9.77,1.43-14.28.05-1.08.14-1.66-.89-2.22-.28-.15-2.92-1.19-3.12-1.22-.36-.05-.57.03-.8.3-.94,3.66-.93,9.62-3.05,12.79-1.38,2.06-1.55-.9-1.48-2.2.2-3.79,1.92-8.15,2.14-11.8.02-.31.05-.5-.1-.8-.3-.61-3.96-1.94-4.69-1.57-1.34.68-.45,8.68-2.96,5.58-2.33-2.87-3.38-9.88-8.44-9.79s-4.97,7.05-5.76,10.58c-.39,1.73-1.17,4.92-1.99,6.41-.15.28.01.41-.53.31-.28-11.67,1.9-23.25,2.84-34.86-.14-.47-.28-.8-.8-.9-1.08-.21-2.54.3-3.72.11l-.46.99-.49,4.66c-.34-4.11-4.27-7.93-7.81-4.08-3.72,4.06-3.84,14.44-4.19,19.75-1.33.93-2.6,1.51-1.7,3.43l1.45-.14c-.48,6.24-.22,12.58-.47,18.85-.23,5.83-.43,14.08-2,19.6-.22.77-1.37,4.58-2.55,3.77-.1-.07-.75-1.91-.82-2.18-.49-1.88-.65-4.87-.4-6.8.14-1.14,1.54-4.3,1.09-4.94-1.23-1.76-3.22,2.93-3.5,3.72-.97,2.71-1.41,6.01-1.19,8.89.18,2.29.86,7.62,4.19,6.36,2.79-1.06,5.71-9.42,6.49-12.23,3.31-11.97,2.76-24.96,3.47-37.28.68-.19,1.61-.83,2.17-1,1.51-.47,4.02,0,3.31-2.35-.44-1.47-3.87.2-4.97.22-.29,0-.32-.04-.49-.27.57-4.52.49-9.33,1.59-13.76.09-.35.7-2.36.8-2.44.7-.54,1.37,2.44,1.41,2.79.13,1.13-.31,4.65-.09,5.13.59,1.31,3.01.82,3.72-.23-.13,4.76-.92,9.51-1.2,14.28-.19,3.33-.72,9.81,1.09,12.59,1.06,1.62,2.71,2.06,4.2.62s1.61-3.4,2.37-5.07c.48-1.05.58.39.8.92,1.16,2.83,3.31,5.79,6.75,5.43,4.2-.43,4.95-5.72,5.07-9.09.25.51,1.94.9,2.01.99.26.29-.25,2.97-.22,3.7.09,2.71,1.77,8.98,5.51,7.9,1.46-.43,1.44-1.61,2.42-2.5.08,2.68,2.77,7.2,5.94,5.33.71-.42.82-1.08,1.21-1.66.15-.21-.04-.44.53-.31.28,1.22-.76,2.72.23,3.73.32.32,3.57,1.41,3.94,1.29.34-.12.31-.31.38-.59.59-2.43.53-5.33,1.33-7.79l1.08-2.64c.63,3.67,3.18,7.85,7.44,6.72ZM28.08,47.28c-3.46.42-4.11-1.54-3.36-4.56l-.36.24c-.42,3.1-.88,6.23-.83,9.36l4.32-.24.24-4.8ZM56.88,69.12l.72-4.8c-.36-.06-.3.45-.36.72-.2.88-.47,2.16-.57,3.03-.03.26-.24,1.09.21,1.05ZM98.52,81.84v.24c.16-.08.16-.16,0-.24ZM98.4,82.32c-.67-.65-.94.78-.48,1.44.46.03.54-1.37.48-1.44Z"/>
  <path class="st1" d="M27.12,88.8c1.44,1.34,2.68,2.84,4.05,4.25l-1.16,7.5c.41.42,5.91-3.05,6.88-3.31.18-.02,1.85.7,2.18.86s.49.5.54.53c1.12,6.26,6.21,11.04,11.28,14.4-.24.45-.34,1.84-.97,2.27-.75.51-5.26.73-5.51,1.09-.09.13.02.53.12.72.46.87,2.69,2.57,3.25,3.48.22.35.2.46.23.85-7.35-5.01-17.33-10.46-20.23-19.49-1.31-4.1-1.53-8.96-.65-13.15Z"/>
  <path class="st2" d="M27.6,87.36c.99-.21,5.38-.85,5.76-1.08.71-.44,2.78-6.26,3.49-6.59.49-.11.32.2.47.47.65,1.19,2.44,5.81,3.24,6.25,1.31.71,5.17.57,6.8,1,.98.65.1.62-.32,1.02-1.55,1.49-3.05,3.06-4.52,4.63l1.16,7.27c-.17.17-3.57-1.43-4.08-1.68-.05-.03-.22-.38-.54-.53s-2-.87-2.18-.86c-.97.25-6.47,3.72-6.88,3.31l1.16-7.5c-1.36-1.41-2.61-2.92-4.05-4.25-1.56-1.46-1.17-1.09.48-1.44Z"/>
  <path class="st2" d="M50.88,113.04c.03-.06.32-.17.44-.39.25-.48,1.07-2.61,1.6-2.49.47.11,2.07,4.66,2.68,5.3l5.84.94-1.68,2.4c-.64.14-2.31,1.72-2.4,2.29-.21,1.33,1.01,4.33.96,5.87-.21.21-4.53-2.5-5.45-2.6-.41-.05-.5.43-.55.45-.23.08-.54.04-.88.19-.57.24-3.95,2.19-4.16,1.97-.13-1.75.84-3.83.72-5.52-.03-.38,0-.49-.23-.85-.57-.9-2.8-2.6-3.25-3.48-.1-.19-.21-.59-.12-.72.25-.37,4.76-.59,5.51-1.09.63-.43.73-1.82.97-2.27Z"/>
  <path class="st1" d="M50.64,76.08c-3.91,2.74-8.46,5.57-10.08,10.32-.81-.43-2.6-5.06-3.24-6.25-.15-.27.02-.58-.47-.47-.71.33-2.78,6.16-3.49,6.59-.38.23-4.76.87-5.76,1.08,1.87-6.11,7.9-9.2,12.72-12.72,1.17.38,4.68.43,5.74-.14.32-.17,1.43-1.33,1.69-1.67.59-.77.82-1.62,1.44-2.27l1.44,5.52Z"/>
  <path class="st2" d="M73.2,117.36c.78-.14,3.27-.37,3.74-.7.72-.51,1.52-3.86,2.38-3.86.22,0,1.51,3.81,1.85,4.04.57.37,3.49.22,4.28.64.44.24.04.39-.12.6-.43.55-2.67,2.38-2.73,2.56-.32.93.74,3.51.68,4.64-.24.26-2.48-1.27-2.88-1.44-.36-.15-1.18-.5-1.51-.45-.46.07-3.49,2.2-3.77,1.88l.44-4.64c-.51-.62-2.6-2.37-2.84-2.92-.21-.47.28-.32.48-.36Z"/>
  <path class="st1" d="M27.12,67.92c.14,2.5.53,4.47,2.4,6.24-1.33.04-5.65,3.98-7.2,4.56.22-2.77.35-5.62.48-8.4l4.32-2.4Z"/>
  <path class="st2" d="M23.28,114.24c.06-.54.39-1.16.25-1.75-.04-.16-2.03-1.78-2.17-2.33,2.68-.07,3.89-.68,4.56-3.36.55-.12.38.06.54.31.4.63.58,2.01,1.15,2.44.68.51,2.47.39,3.35.62-.27.7-2.24,2.01-2.34,2.54-.13.69.67,2.34.42,3.21-.09.13-2.38-1.35-2.8-1.39-.61-.05-1.27.67-1.76.91-.2.1-1.38.54-1.44.48.2-.57.18-1.11.24-1.68Z"/>
  <path class="st1" d="M80.16,40.08c1.52-.18,4.12-2.58,5.42-2.64.98-.05,5.51,3,5.86,2.64.06-.66-.15-1.28-.24-1.92,4.28,2.39,9.91,5.86,10.49,11.23.72,6.62-6.49,13.01-11.45,16.37-.11-.69-.83-2.81-.61-3.35s2.55-2.37,3.13-3.12c.18-.24.47-.3.36-.72-.18-.16-3.99-.32-4.74-.66-.96-.43-.58-1.35-.78-1.74,1.45-2.82,1.71-5.91.28-8.8-1.3-2.63-5.23-5.74-7.72-7.28Z"/>
  <path class="st1" d="M69.6,63.36c-1.54.94-2.41-.91-3.12,2.4l-1.2.72c.25-1.57.79-4.58-.64-5.48-.3-.19-2.98-1.43-3.2-1.48,3.55-4.4,2.39-9.89-1.68-13.44,1.83-2.27,4.25.68,6.24,1.2.21-.23-.85-4.1-.72-4.91.11-.72,1.03-1.12,1.45-1.57,8.33,4.54,13.15,10.98,5.88,19.44-.36.42-2.77,2.97-3,3.12Z"/>
  <path class="st2" d="M83.52,25.44c.03-.06.36-.22.53-.54.24-.48,1.04-2.72,1.17-2.8.08-.05.58-.05.68.01.35.23,1.95,5.17,2.77,5.75s5.11.64,6.38.94c.3.26-1.44,1.79-1.69,2.04-.18.19-.19.55-.23.6-.04.04-.48.08-.73.34-.37.38-1.8,1.68-1.88,1.99-.1.38.58,3.59.69,4.39.09.64.3,1.26.24,1.92-.35.36-4.88-2.69-5.86-2.64-1.3.06-3.9,2.46-5.42,2.64-.12-.07-.31-.14-.48-.24-.27-1.37,1.16-5.06.92-6.07-.13-.54-2.05-1.98-2.6-2.33l-1.56-1.92-.12-.72c.24-.24,5.19-.55,5.95-.9.93-.42.93-1.85,1.26-2.46Z"/>
  <path class="st2" d="M59.28,36.72c.65-.99,1.12-2.42,1.72-3.2.14-.19.39-.61.68-.4.21.16,1.55,4.19,1.98,4.5.6.43,4.03.49,4.98.78.22.21-1.64,2.09-1.92,2.4-.42.46-1.33.86-1.45,1.57-.13.81.93,4.68.72,4.91-1.98-.52-4.41-3.47-6.24-1.2l-3.12,1.2c.25-1.19.36-2.38.48-3.6,0-.05.24-.28.26-.59.09-1.55-2.04-2.85-2.9-4.09-.14-.2-.33-.24-.24-.6,1.04-.32,4.21-.4,4.82-1.07.18-.2.14-.5.22-.61Z"/>
  <path class="st2" d="M52.56,12.72c.18.58,1.49,3.88,1.73,4.03.45.29,4.52.37,4.51.89-.33.66-2.97,2.59-3.08,2.92-.3.88.64,3.58.68,4.64-.25.25-2.22-1.15-2.64-1.33-.26-.11-.55-.05-.72-.11-.32-.11-.47-.54-1.02-.45-.45.07-3.49,2.21-3.77,1.89l.44-4.64-2.84-2.92c-.1-.58.26-.29.6-.35.72-.13,3.35-.39,3.72-.6.29-.17,1.53-3.22,1.91-3.8.15-.23.47-.14.49-.16Z"/>
  <path class="st2" d="M81.6,63.12c.02-.22.42-.5.13-.96l-1.45-1.2-1.8-2.4c.24-.22,4.06-.36,4.79-.85.59-.4,1.94-4.25,2.17-4.43.62-.46,1.48,2.33,1.67,2.71.11.22.47.14.48.17.2.39-.18,1.31.78,1.74.75.34,4.56.5,4.74.66.11.42-.17.48-.36.72-.57.75-2.9,2.58-3.13,3.12s.49,2.66.61,3.35c.08.52.02,1.12.24,1.68-.13.12-1.43-.35-1.68-.48-.07-.03-.23-.38-.54-.53-.49-.24-2.29-1.14-2.66-1.1-.55.05-4.03,2.58-4.48,2.11.06-1.46.37-2.86.48-4.32ZM90.96,59.52c-1.47-.17-3.29-.06-4.18-1.46l-1.1-2.38c-.7,2.59-2.02,3.78-4.8,3.6-.51.43,2,2.38,2.12,2.81.21.73-.65,3.14-.44,3.43,2.31-1.34,3.95-1.73,6.24,0,.26-1.22-.74-2.21-.38-3.37.34-1.09,2.04-1.6,2.54-2.63Z"/>
  <path class="st1" d="M81.6,63.12c-.11,1.46-.42,2.86-.48,4.32.44.47,3.93-2.06,4.48-2.11.38-.04,2.17.86,2.66,1.1.31.15.48.49.54.53-.95.41-3.02,2.47-3.84,2.64-1.01.21-2.54-.65-3.83-.11-1.74.72-.23,3.77-2.16,4.19-.61-2.52,2.11-6.4-.96-7.68l3.6-2.88Z"/>
  <path class="st2" d="M64.32,93.36c.77-.42,2.31-4.21,2.67-5.25,1.3-.27.74.2,1.07.91.29.63,2.01,4.3,2.27,4.46.83.51,5.78.64,6,.85.07.37-.04.56-.23.85-.52.81-3.69,3.26-3.81,3.63-.44,1.41.69,4.76.91,6.31-.24.21-3.05-1.18-3.6-1.44s-1.91-1.17-2.24-1.15c-1.18.07-4.09,2.92-5.68,2.59-.26-.25,1.14-5.26.92-6.06s-4.65-3.92-3.81-4.73c1.33-.31,4.45-.38,5.52-.96Z"/>
  <path class="st1" d="M91.2,93.6c.67,2.66,2.82,4.98,5.04,6.48-.32.6-.1,1.58-1.13,2.11s-3.65.65-4.87.77c-.78.77,2.93,3.41,3.24,4.08.4.87-.06,1.3-.11,1.92-8.95-4.91-20.84-10.89-14.61-23.13.17-.34.29-.72.69-.87.48,2.98,1.97,6.07,5.22,6.66,2.01.36,2.78-.96,3.27-.86s2.1,2.38,3.27,2.84Z"/>
  <path class="st2" d="M96.24,100.08c.04-.07.37-.24.53-.54.33-.63.86-2.55,1.61-2.07.28.18,1.54,4.26,2.29,4.79s4.34.63,5.42.7c.43.42-1.14,1.72-1.45,2.04-.18.19-.19.56-.23.6-.46.44-2.04.84-2.17,1.81s1.17,5.2.97,5.38c-1.73-.22-3.96-2.62-5.78-2.06-.43.13-.63.59-.7.62-.17.08-.55.04-.88.19-.53.24-2.61,1.59-2.96,1.25.19-1.28.35-2.55.48-3.84.06-.61.51-1.05.11-1.92-.31-.67-4.02-3.31-3.24-4.08,1.23-.12,3.83-.24,4.87-.77s.81-1.51,1.13-2.11Z"/>
  <path class="st1" d="M72.48,78.48c.07-.35.14-2.05.24-2.16.48-.55.89,1.34.96,1.44l-1.2.72Z"/>
  <path class="st1" d="M49.2,59.76c-2.42-4.51-3.87-8.76-10.14-7.62-1.39.25-1.57,1.48-2.82,1.86.01-.87-.63-1.78-1.2-2.4.39-3.84.81-7.68,1.2-11.52,6.58,3.58,18.73,10.79,12.96,19.68Z"/>
  <path class="st3" d="M13.92,97.44c-.03-3.56-.22-7.41,1.68-10.56-.3,3.65-.63,7.05-1.68,10.56Z"/>
  <path class="st2" d="M9.12,70.56c-.14-.03-.13-.3-.71-.14s-3.11,1.86-3.37,1.58c-.23-1.17.75-3.1.43-4.15-.21-.7-2.33-2.06-2.59-2.7-.21-.49.33-.32.56-.39.78-.21,2.99-.44,3.35-.67.48-.3,1.37-3.33,1.96-3.62.41-.2.38.29.46.48.26.57,1.21,3.03,1.57,3.24.68.4,2.95.25,3.84.6.36.4-2.3,2.43-2.52,2.89-.32.65.12.83.13.95.06,1.13.15,2.24.24,3.36-1.22-.5-2.01-1.19-3.36-1.44Z"/>
  <path class="st2" d="M6.72,39.6c.2-.35.46-.82.66-1.13.65-1,1,1.24,1.36,1.87.79,1.35,2.35.93,3.74,1.19-.45.58-.96,1.12-1.44,1.68-.22.25-.82.43-.92.89-.16.68.63,2.34.44,3.19-.09.13-2.37-1.35-2.8-1.39-.6-.05-2.95,1.64-3.2,1.39-.02-.93.7-2.6.49-3.43-.04-.16-2.02-1.78-2.17-2.33,1.03-.2,2.81-.11,3.48-.97.26-.33.23-.73.36-.95Z"/>
  <path class="st3" d="M93.12,31.44c6.25,3.8,13.48,6.2,18.72,11.52-.1.88-.31,1.74-.24,2.64.41-.2,1.39-.34,1.68-.48,2.85,5.73-1.1,12.01-5.28,15.84.14-1.9.5-4.31.5-6.12.01-4.57-6.4-1.13-6.73.49-.31,3.96-.63,7.92-.97,11.87l-6.24,4.32c-2.12-.32-4.76-.18-5.81,1.99-.45.93-.24,1.81-.43,2.57l-1.44.72c.18-1.69,1.32-5.48-.39-6.45-.52-.29-1.23-.14-1.53-.75.82-.17,2.89-2.23,3.84-2.64.25.13,1.55.59,1.68.48-.22-.55-.15-1.15-.24-1.68,4.97-3.36,12.17-9.75,11.45-16.37-.59-5.37-6.22-8.83-10.49-11.23-.11-.8-.79-4-.69-4.39.08-.31,1.51-1.61,1.88-1.99.25-.26.68-.3.73-.34Z"/>
  <path class="st2" d="M114.72,34.8c.5.28.74.45,1.2.72.24,3.11,1.76,2.79,4.19,3.13.34.05.71-.23.6.35-.42.65-2.45,2.12-2.6,2.7-.2.77.62,2.99.68,3.9-.32.31-2.9-1.57-3.52-1.62-.76-.07-1.6.95-2,1.15-.29.14-1.27.28-1.68.48-.08-.89.14-1.76.24-2.64.05-.47.42-.91.13-1.44-.18-.33-1.88-1.6-2.17-2.16-.13-.24-.15-.45-.12-.72.85-.14,2.95-.18,3.59-.61.4-.27,1.41-2.59,1.45-3.23Z"/>
  <path class="st1" d="M115.68,73.68c.5-.1,5.53-4.11,5.76-3.84v29.52c-3.64-.07-2.94-.63-4.26-3.05-.15-.28.01-.41-.53-.31-.68,2.68-1.88,3.29-4.56,3.36.57.62.99,1.21,1.44,1.92-1.92-.88-7.96-5.5-8.16-7.44-.1-.96.52-2.49.24-3.6.68-.13.39.18.54.52.93,2.03,1.67,3.9,4.35,3.53,3.13-.43,4.1-5.59,4.59-8.13.45-2.31.81-5.02,1.04-7.36.18-1.85.7-3.56-.45-5.13Z"/>
  <path class="st1" d="M108.96,70.32c-.56-.03-1.12.02-1.68,0,0-3.13.48-6.25.72-9.36,4.18-3.83,8.13-10.11,5.28-15.84.4-.19,1.24-1.21,2-1.15.62.05,3.2,1.93,3.52,1.62-.06-.92-.89-3.14-.68-3.9.15-.58,2.18-2.04,2.6-2.7.1-.57-.26-.3-.6-.35-2.44-.34-3.96-.02-4.19-3.13,1.88,1.08,3.89,1.99,5.48,3.52v21.03c-3.27,4.24-8.28,6.95-12.44,10.25Z"/>
  <path class="st0" d="M80.4,78.96c-4.26,1.13-6.81-3.05-7.44-6.72l-1.08,2.64c-.8,2.46-.74,5.36-1.33,7.79-.07.28-.04.47-.38.59-.37.13-3.62-.96-3.94-1.29-.99-1.01.04-2.51-.23-3.73-.57-.13-.39.1-.53.31-.4.58-.5,1.24-1.21,1.66-3.17,1.86-5.86-2.65-5.94-5.33-.98.89-.96,2.08-2.42,2.5-3.74,1.09-5.43-5.18-5.51-7.9-.02-.73.49-3.41.22-3.7-.08-.08-1.76-.47-2.01-.99-.11,3.37-.86,8.66-5.07,9.09-3.44.36-5.6-2.6-6.75-5.43-.22-.53-.33-1.97-.8-.92-.76,1.67-.88,3.64-2.37,5.07s-3.14,1-4.2-.62c-1.81-2.77-1.28-9.26-1.09-12.59.27-4.77,1.06-9.52,1.2-14.28-.7,1.06-3.13,1.54-3.72.23-.21-.47.22-4,.09-5.13-.04-.35-.71-3.33-1.41-2.79-.1.08-.72,2.09-.8,2.44-1.11,4.43-1.03,9.24-1.59,13.76.17.24.2.28.49.27,1.1-.02,4.53-1.69,4.97-.22.71,2.35-1.8,1.88-3.31,2.35-.56.17-1.48.81-2.17,1-.71,12.32-.16,25.31-3.47,37.28-.78,2.82-3.7,11.18-6.49,12.23-3.33,1.26-4.01-4.06-4.19-6.36-.23-2.87.22-6.18,1.19-8.89.28-.79,2.27-5.48,3.5-3.72.44.63-.95,3.8-1.09,4.94-.24,1.93-.09,4.92.4,6.8.07.27.72,2.11.82,2.18,1.18.82,2.33-3,2.55-3.77,1.57-5.53,1.77-13.77,2-19.6.25-6.27-.02-12.61.47-18.85l-1.45.14c-.9-1.92.37-2.5,1.7-3.43.36-5.31.47-15.69,4.19-19.75s7.46-.03,7.81,4.08l.49-4.66.46-.99c1.19.19,2.64-.31,3.72-.11.52.1.66.42.8.9-.93,11.61-3.12,23.19-2.84,34.86.55.1.38-.03.53-.31.82-1.49,1.6-4.68,1.99-6.41.79-3.53.71-10.49,5.76-10.58s6.11,6.93,8.44,9.79c2.51,3.09,1.62-4.9,2.96-5.58.72-.37,4.39.96,4.69,1.57.15.3.12.49.1.8-.22,3.65-1.94,8.01-2.14,11.8-.07,1.3.1,4.27,1.48,2.2,2.12-3.17,2.11-9.13,3.05-12.79.23-.28.44-.36.8-.3.2.03,2.85,1.07,3.12,1.22,1.04.56.95,1.14.89,2.22-.22,4.51-2.67,9.58-1.43,14.28.6.44,1.86-2.49,2.03-2.89.85-2.02,1.12-4.54,1.86-6.31.15-.35.59-.31.67-.57.3-.93-.13-3.6.89-3.87.47-.13,3.68,1.07,4.04,1.39.61.54.26,1.67.35,2.42,1.14-1.48,1.14-1.86,3.18-1.62,3.69.44,2.09,1.65,1.86,4.14-.07.74-.07,1.9,0,2.64.05.47.76,3.09.97,3.23.91.62,1.46-1.59,1.7-2.01.16-.28.62-.3.69-.55.53-1.9-.8-3.96,1.98-3.61,2.06.26,3.15.5,3.06,2.7-.16,3.94-1.61,8.77-1.17,12.7.09.83.34,2.48,1.14,1.43,1.99-2.62,2.48-9.43,3.58-12.74,1.4-4.24,6.92-1.95,8.05,1.67.73,2.34.95,5.29-2.23,5.35,1.34,1.88,1.96,4.08,2.16,6.36.34.42,1.29-2.57,1.37-2.83.65-2.18.57-5.16,1.99-6.7l1.98-22.93c.68-.82,4.23-3.11,4.27-.79l-1.69,18.85c.38.38,1.13-1.19,1.34-1.42.98-1.04,2.03-1.45,3.23-.39,3.44,3.02.66,13.01.95,17.17.35.06.32-.42.41-.67,1.3-4,1.45-8.82,2.15-12.97.11-.9,1.04-1.03,1.4-.28.3.63-.25,4.81-.39,5.85-.34,2.61-1.35,9.54-3.09,11.31-3.05,3.1-4.83-2.99-5.03-5.28-.33-3.8.92-7.6.95-11.4l-1.08,2.88c-.68,3.38-1.35,6.78-1.8,10.2-.34,2.58.72,5.03-2.75,4.92-3.77-.11-1.55-2.78-1.82-5.29l-1.68,2.76c-3.35,3.89-8.84,1.61-10.08-3-.64-.12-.59.68-1.07,1.21-1.42,1.57-2.63,1.38-4.21.11-1.4-1.13-2.64-4.26-2.64-6v-4.44ZM29.64,44.64v.24c.16-.08.16-.16,0-.24ZM42.69,55.47c-.78-.44-1.31,1.15-1.48,1.7-1.04,3.32-1.26,9.84-.29,13.16.84,2.87,1.71.68,2.17-.96.9-3.28,1.14-9.62.1-12.83-.12-.37-.37-.69-.5-1.06ZM93.6,74.88c-.35-.34-.43.03-.48.36-.14,1.07.27,2.19.68,3.17.14.35.41,1.15.76,1.28.21-.8-.5-4.36-.96-4.8ZM91.02,87.89c-.41.7.71,2.98,1.63,2.74,1.68-.44.18-4.88-.6-5.91-.29.76.04,1.63-.22,2.42-.2.59-.72.61-.8.75Z"/>
  <path class="st3" d="M22.8,70.32c.19-4.14.21-8.31.26-12.46,1.48-.31,2.73-1.21,4.3-1.22-.12,3.74-.45,7.53-.24,11.28l-4.32,2.4Z"/>
  <path class="st1" d="M100.8,67.2c-.11,1.26-.55,9.57-.97,9.83-.81.5-.83-1.1-1.14-1.84-.64-1.49-2.48-3.43-4.13-3.67l6.24-4.32Z"/>
  <path class="st3" d="M28.08,47.28l-.24,4.8-4.32.24c-.04-3.13.41-6.26.83-9.36l.36-.24c-.74,3.02-.1,4.97,3.36,4.56Z"/>
  <path class="st3" d="M36.24,54c-.01.72-.8,1.78-1.08,2.64-.43,1.32-.46,2.56-.67,3.89-.04.28-.06,1.16-.41,1.15-.04-3.39.61-6.73.96-10.08.57.62,1.21,1.53,1.2,2.4Z"/>
  <path class="st3" d="M66.48,65.76c-.29,1.37-.57,1.96-.9,3.06-.52,1.77-1.01,3.56-1.5,5.34-.43.05-.23-.54-.21-.81.19-2.12.78-4.23,1.13-6.33.05-.29.28-.52.28-.55l1.2-.72Z"/>
  <path class="st1" d="M88.32,76.08c-.17.7-.47,1.12-.61,1.67-.34,1.42-.36,3.1-1.19,4.33-.24-1.73.18-3.54.36-5.28l1.44-.72Z"/>
  <path class="st1" d="M56.88,69.12c-.44.04-.24-.78-.21-1.05.1-.88.37-2.15.57-3.03.06-.27,0-.78.36-.72l-.72,4.8Z"/>
  <path class="st3" d="M98.4,82.32c.06.06-.02,1.47-.48,1.44-.46-.66-.19-2.09.48-1.44Z"/>
  <path class="st3" d="M98.52,81.84c.16.08.16.16,0,.24v-.24Z"/>
  <path class="st0" d="M90.96,59.52c-.5,1.03-2.19,1.54-2.54,2.63-.36,1.16.64,2.15.38,3.37-2.28-1.73-3.93-1.34-6.24,0-.21-.28.65-2.7.44-3.43-.12-.43-2.63-2.38-2.12-2.81,2.78.19,4.1-1.01,4.8-3.6l1.1,2.38c.89,1.4,2.71,1.29,4.18,1.46Z"/>
  <path class="st2" d="M42.69,55.47c.13.37.38.69.5,1.06,1.03,3.21.8,9.55-.1,12.83-.45,1.64-1.32,3.83-2.17.96-.97-3.32-.75-9.84.29-13.16.17-.55.7-2.14,1.48-1.7ZM42.48,59.52c-.69-.11-.4.14-.51.55-.21.75-.69,6.36-.45,6.64.6.08.87-.61.94-1.09.3-1.97.23-4.14.01-6.11Z"/>
  <path class="st2" d="M91.02,87.89c.08-.14.61-.17.8-.75.26-.78-.07-1.65.22-2.42.78,1.02,2.28,5.47.6,5.91-.92.24-2.04-2.04-1.63-2.74Z"/>
  <path class="st2" d="M93.6,74.88c.46.44,1.17,4,.96,4.8-.35-.12-.62-.93-.76-1.28-.41-.98-.82-2.09-.68-3.17.04-.33.12-.69.48-.36Z"/>
  <path class="st2" d="M29.64,44.64c.16.08.16.16,0,.24v-.24Z"/>
  <path class="st1" d="M42.48,59.52c.22,1.97.28,4.13-.01,6.11-.07.48-.34,1.18-.94,1.09-.25-.28.24-5.89.45-6.64.11-.41-.17-.67.51-.55Z"/>
</svg>